<svg width="233" height="248" viewBox="0 0 233 248" fill="none" xmlns="http://www.w3.org/2000/svg">
<g id="gears1">
<g id="Vector">
<path d="M164.455 0.0954955C160.527 0.463057 159.58 0.559783 159.347 0.65651C158.941 0.811272 158.051 8.41398 157.722 14.5465L157.587 17.042L155.459 17.5643C154.298 17.8545 152.673 18.3575 151.88 18.6864C149.849 19.5182 145.361 21.6655 144.2 22.3813C143.658 22.7102 143.175 22.981 143.136 22.981C143.078 22.981 140.215 20.6596 136.771 17.8352C133.328 15.0107 130.387 12.6506 130.271 12.5926C129.807 12.3991 125.841 15.7652 122.881 18.8411C120.038 21.7816 116.788 25.8441 117.02 26.1343C117.852 27.237 121.024 31.1447 123.733 34.3948C125.551 36.5808 127.118 38.4766 127.195 38.612C127.273 38.7668 127.021 39.3472 126.538 40.121C125.242 42.1716 123.733 45.3636 123.056 47.4529C122.707 48.5168 122.224 50.0064 121.972 50.7803C121.721 51.5347 121.508 52.2892 121.508 52.4439C121.508 52.6567 121.14 52.7535 120.115 52.8502C112.57 53.5466 105.316 54.3785 105.122 54.5913C104.523 55.1716 104.136 62.9485 104.465 67.1464C104.697 70.0675 105.142 73.2402 105.355 73.4336C105.432 73.5304 111.139 74.0914 119.999 74.9232L121.489 75.0586L121.605 75.8518C121.682 76.2967 121.895 77.0512 122.088 77.5348C122.282 78.0185 122.746 79.4113 123.133 80.6494C123.887 82.9902 125.454 86.3176 126.751 88.2521C127.176 88.8905 127.486 89.5096 127.428 89.6644C127.37 89.7998 125.822 91.715 123.965 93.9203C118.858 100.033 117.233 102.103 117.387 102.355C118.045 103.516 121.16 107.172 123.346 109.377C126.228 112.279 130.736 116.032 130.948 115.723C131.026 115.606 132.864 114.059 135.05 112.26C137.236 110.461 139.886 108.255 140.95 107.346C142.014 106.417 143.02 105.566 143.213 105.431C143.484 105.218 143.852 105.353 145.728 106.417C148.321 107.888 151.513 109.203 154.608 110.035C155.827 110.364 156.949 110.712 157.065 110.789C157.219 110.886 157.51 112.898 157.877 116.632C158.458 122.3 158.98 126.769 159.115 127.175C159.27 127.581 165.112 127.891 170.123 127.775C174.108 127.678 177.996 127.31 178.306 127.02C178.345 126.962 178.693 123.538 179.06 119.398C179.447 115.258 179.795 111.583 179.853 111.234C179.97 110.499 179.931 110.519 183.278 109.532C186.083 108.7 189.816 107.056 192.08 105.644C192.989 105.063 193.821 104.638 193.937 104.696C194.053 104.734 195.233 105.702 196.568 106.843C201.056 110.712 206.666 115.084 206.956 114.987C207.479 114.775 209.626 113.13 210.825 112.028C213.321 109.706 220.169 101.949 220.169 101.446C220.169 101.388 217.964 98.718 215.294 95.5066C212.605 92.3147 210.206 89.4516 209.974 89.1614L209.549 88.6391L210.69 86.4337C212.218 83.5125 213.708 79.7789 214.346 77.322L214.849 75.3101L218.428 74.9813C220.401 74.8071 224.116 74.4589 226.689 74.2268L231.37 73.7818L231.486 73.2789C231.738 72.0601 231.989 69.0422 232.086 65.9276C232.26 61.3428 231.757 54.6687 231.235 54.3398C231.099 54.2624 227.424 53.8755 223.032 53.4692C218.641 53.063 214.985 52.6954 214.907 52.6567C214.83 52.6181 214.675 52.0764 214.559 51.4573C214.037 48.807 212.334 44.4156 210.574 41.1463L209.316 38.8055L210.052 37.9156C210.458 37.4126 212.741 34.6076 215.159 31.6671C217.558 28.7266 219.589 26.231 219.666 26.0956C219.821 25.8635 218.293 23.9096 215.739 21.0658C212.915 17.9319 206.434 12.3411 205.989 12.67C204.383 13.8887 198.599 18.5703 196.568 20.292C195.117 21.4914 193.821 22.5941 193.647 22.7295C193.415 22.923 192.602 22.5941 189.217 20.8724C186.257 19.4021 184.438 18.6283 182.929 18.1834C181.769 17.8352 180.608 17.5643 180.376 17.5643C179.892 17.5643 179.892 17.6224 179.428 12.6313C179.099 8.93631 178.19 0.869308 178.112 0.791927C177.958 0.637165 175.675 0.346985 173.237 0.172877C170.722 -0.0205765 166.041 -0.0592671 164.455 0.0954955ZM173.257 40.6046C177.455 41.301 181.517 43.5257 185.057 47.0466C188.52 50.4901 190.648 54.2818 191.538 58.6731C193.55 68.3651 189.623 77.9798 181.478 83.3578C177.764 85.8146 174.166 86.956 169.562 87.1495C165.267 87.3429 162.056 86.6852 158.361 84.8861C153.737 82.6227 150.255 79.2179 147.798 74.5557C145.941 71.0155 145.206 67.9202 145.225 63.5095C145.245 58.0734 146.715 53.7014 149.946 49.5228C154.047 44.2028 159.618 40.8948 165.325 40.4112C167.472 40.237 171.69 40.3338 173.257 40.6046Z" fill="white"/>
<path d="M164.455 44.0479C157.394 45.5956 151.629 50.9929 149.423 58.112C148.94 59.7177 148.901 60.0659 148.901 63.5093C148.882 67.5138 148.978 68.1135 150.158 71.1701C151.416 74.4395 154.705 78.4826 157.858 80.6106C159.599 81.7907 161.998 82.874 163.99 83.377C166.467 83.996 171.187 83.996 173.47 83.377C176.178 82.6419 178.132 81.7133 180.318 80.0883C186.508 75.4841 189.468 68.81 188.636 61.3233C188.114 56.487 186.237 52.6566 182.813 49.3873C180.221 46.9111 177.513 45.3247 174.147 44.3188C171.845 43.6417 166.969 43.4869 164.455 44.0479ZM171.845 49.0004C176.255 49.9289 180.356 53.0435 182.233 56.8739C182.562 57.551 183.026 58.8278 183.239 59.7177C183.587 61.1299 183.645 61.7489 183.568 64.2638C183.49 66.8174 183.413 67.3784 182.91 68.8293C181.44 73.2207 177.145 77.1285 172.347 78.4246C170.877 78.8308 166.737 78.8889 165.422 78.5213C162.578 77.7475 160.257 76.3933 158.187 74.3234C157.316 73.4722 156.33 72.2728 155.962 71.6731C151.667 64.4573 153.931 54.9974 160.972 50.8188C162.404 49.987 164.571 49.1358 166.002 48.9036C167.453 48.6521 170.471 48.7102 171.845 49.0004Z" fill="white"/>
</g>
<g id="Vector_2">
<path d="M91.2519 84.1512C89.801 87.8461 88.118 92.431 86.3962 97.306L84.5004 102.684H82.1403C77.6715 102.684 70.8619 103.593 66.8961 104.735C65.542 105.122 64.4006 105.412 64.3619 105.373C64.3425 105.334 63.6655 104.386 62.8723 103.264C60.164 99.3953 51.8455 87.9815 51.7487 87.9815C51.5553 87.9815 48.2472 89.297 47.5121 89.6839C47.0865 89.8967 46.0806 90.3804 45.2874 90.7673C44.4942 91.1348 42.966 91.9473 41.902 92.5857C40.838 93.2048 39.0389 94.2688 37.8975 94.9459C35.8662 96.1453 33.0612 98.1572 31.2814 99.6855L30.3915 100.479L32.7129 105.489C34.0091 108.255 36.021 112.589 37.2011 115.123L39.3484 119.727L37.8781 121.217C34.0865 125.086 29.5016 131.102 27.954 134.275C27.6445 134.894 27.3349 135.378 27.2382 135.378C27.1608 135.378 24.4138 134.913 21.1444 134.333C14.7798 133.211 6.1905 131.837 6.11312 131.934C5.95836 132.089 4.12055 136.732 3.40478 138.763C2.41817 141.587 0.793158 149.558 0.116072 155.013L0 155.98L19.6549 163.525L19.6935 165.363C19.7709 168.671 20.1385 172.733 20.5447 174.823C20.7575 175.945 21.0671 177.55 21.2218 178.363C21.3766 179.195 21.7248 180.607 21.9763 181.516C22.2471 182.425 22.4599 183.296 22.4599 183.451C22.4599 183.586 20.6608 184.998 18.4554 186.565C16.2307 188.132 12.4004 190.899 9.92415 192.717C5.90032 195.658 5.43604 196.064 5.53276 196.451C5.95836 198.153 9.71135 205.427 12.2262 209.451C13.6578 211.695 16.5403 215.835 17.3334 216.763L17.9138 217.421L21.2992 215.854C24.6266 214.287 35.5374 209.296 36.6981 208.793L37.2784 208.522L39.8901 210.94C43.1594 213.997 44.7844 215.216 49.2145 217.924C51.8842 219.549 52.7354 220.168 52.6967 220.439C52.6773 220.632 52.2711 223.186 51.7874 226.107C50.9362 231.253 49.5434 240.577 49.5434 241.061C49.5434 241.197 49.8336 241.409 50.1818 241.564C54.5345 243.305 58.4229 244.505 64.0137 245.82C67.7473 246.71 73.164 247.639 73.3575 247.426C73.7057 247.039 78.4066 234.677 80.2251 229.454L80.9602 227.268H83.9007C88.9691 227.268 92.548 226.765 97.6745 225.295C100.035 224.637 100.499 224.56 100.712 224.772C100.847 224.927 103.672 228.874 106.999 233.555C110.326 238.237 113.073 242.106 113.112 242.125C113.17 242.202 114.873 241.409 120.096 238.836C122.262 237.772 124.797 236.321 126.77 235.025C129.575 233.168 133.173 230.518 134.14 229.589C134.489 229.28 134.431 229.106 132.574 224.927C131.51 222.548 129.498 218.156 128.124 215.177L125.609 209.78L127.873 207.342C130.968 204.053 133.773 200.223 135.707 196.664C136.191 195.735 136.675 194.942 136.752 194.903C136.829 194.864 138.59 195.116 140.66 195.464C151.474 197.283 157.742 198.269 157.955 198.192C158.38 198.018 161.398 189.428 162.23 186.062C162.385 185.366 162.617 184.611 162.714 184.379C162.888 183.973 164.126 176.989 164.339 175.19L164.455 174.281L163.526 173.875C162.327 173.333 154.24 170.277 148.746 168.265L144.335 166.659V163.641C144.335 160.178 144.142 158.205 143.542 154.974C143.194 153.059 142.246 148.9 141.898 147.72C141.821 147.488 142.749 146.733 145.535 144.741C149.733 141.742 158.98 134.855 159.135 134.584C159.27 134.372 157.955 131.276 156.368 128.123C154.124 123.616 151.222 119.069 148.166 115.22L146.676 113.343L144.103 114.465C140.544 116.032 134.818 118.663 130.813 120.598L127.466 122.223L124.874 119.766C122.127 117.174 118.8 114.581 116.575 113.266C115.414 112.589 113.035 111.022 112.551 110.616C112.474 110.538 112.764 108.236 113.189 105.47C115.356 91.6572 115.724 89.297 115.666 89.239C115.627 89.2196 114.253 88.678 112.609 88.0396C109.127 86.6854 104.89 85.2732 104.271 85.2732C104.039 85.2732 103.362 85.0991 102.762 84.9056C101.215 84.364 93.3218 82.7776 92.1998 82.7583C91.8903 82.7583 91.6968 83.0678 91.2519 84.1512ZM87.7504 134.894C93.0897 135.842 98.6612 138.454 102.685 141.916C107.444 146.018 111.584 153.504 112.706 160.024C113.131 162.48 113.093 166.736 112.628 169.464C111.777 174.397 109.649 179.62 107.115 182.967C102.646 188.906 94.9082 193.568 87.3828 194.864C85.1775 195.232 80.9215 195.232 78.6001 194.864C74.1893 194.149 69.1982 192.35 66.103 190.357C59.216 185.908 54.1089 178.266 52.5226 170.006C52.0583 167.549 52.0583 163.08 52.5226 160.43C54.2636 150.583 58.8872 143.754 67.2443 138.647C69.4497 137.293 72.9125 135.9 75.5628 135.262C79.2965 134.372 84.0554 134.236 87.7504 134.894Z" fill="white"/>
<path d="M80.7861 138.802C76.6268 139.285 74.2667 140.001 70.8232 141.781C64.0523 145.282 60.0092 150.37 57.9586 157.992C56.9913 161.552 56.8365 162.655 56.8172 165.556C56.8172 168.303 57.1267 170.431 57.8812 172.733C58.3455 174.165 59.9898 177.744 60.1833 177.744C60.2413 177.744 60.841 178.556 61.4794 179.524C64.3425 183.838 68.347 187.049 73.2607 188.964C83.0495 192.795 93.3218 190.783 101.06 183.548C104.542 180.297 107.405 175.113 108.372 170.354C109.707 163.719 108.605 157.509 105.026 151.512C101.176 145.031 96.1462 141.375 88.4275 139.46C85.8352 138.821 82.7786 138.55 80.7861 138.802ZM87.4602 146.037C93.4959 147.546 97.7519 151.086 100.634 156.967C101.95 159.695 102.24 161.107 102.24 164.879C102.24 168.729 101.95 170.102 100.499 173.082C99.4349 175.306 98.3323 176.873 96.7266 178.479C91.1165 183.992 84.5971 185.598 76.917 183.354C71.9259 181.903 67.9795 178.46 65.4065 173.314C62.9497 168.4 62.7175 162.229 64.7681 157.528C66.7994 152.963 70.3589 149.326 74.9244 147.178C79.1224 145.205 82.8173 144.876 87.4602 146.037Z" fill="white"/>
</g>
</g>
</svg>
