<svg width="1921" height="620" viewBox="0 0 1921 620" fill="none" xmlns="http://www.w3.org/2000/svg">
<path d="M80.5268 7.02172L0.526794 13.0217L0.526892 570.255L80.5269 522.255C160.527 474.255 320.527 378.255 480.527 348.255C640.527 318.255 800.527 354.255 960.527 414.255C1013.86 434.255 1067.19 456.921 1120.53 479.588C1227.19 524.921 1333.86 570.255 1440.53 594.255C1600.53 630.255 1760.53 618.255 1840.53 612.255L1920.53 606.255V49.0217L1840.53 97.0217C1760.53 145.022 1600.53 241.022 1440.53 271.022C1280.53 301.022 1120.53 265.022 960.527 205.022C907.194 185.022 853.86 162.355 800.527 139.688C693.86 94.3551 587.193 49.0217 480.527 25.0217C320.527 -10.9783 160.527 1.02172 80.5268 7.02172Z" fill="#0099FF"/>
</svg>
